<?xml version="1.0" encoding="UTF-8"?>
<svg width="51px" height="117px" viewBox="0 0 51 117" version="1.1" xmlns="http://www.w3.org/2000/svg" xmlns:xlink="http://www.w3.org/1999/xlink">
    <!-- Generator: sketchtool 58 (101010) - https://sketch.com -->
    <title>DA7E4E23-5471-4AEB-870C-6813D230C89D</title>
    <desc>Created with sketchtool.</desc>
    <g id="Design" stroke="none" stroke-width="1" fill="none" fill-rule="evenodd">
        <g id="UI-Kit-module-6" transform="translate(-170.000000, -758.000000)" fill="#578B84" fill-rule="nonzero">
            <g id="atom/icons/130px/a-icon-pepper" transform="translate(170.000000, 758.000000)">
                <g id="002-pepper">
                    <path d="M21.9998982,62.2724094 L28.0002033,62.2724094 C32.4111693,62.2724094 36,58.8475654 36,54.6362048 C36,50.424844 32.4111693,47 28.0002033,47 L18,47 L18,68 L21.9998982,68 L21.9998982,62.2724094 Z M21.9998982,50.8181025 L28.0002033,50.8181025 C30.2056864,50.8181025 32.0001018,52.5300874 32.0001018,54.6362048 C32.0001018,56.742322 30.2056864,58.4543071 28.0002033,58.4543071 L21.9998982,58.4543071 L21.9998982,50.8181025 Z" id="Shape"></path>
                    <path d="M49.4842582,96.8058242 C48.9329683,96.0551147 48.9329683,95.0464326 49.4842582,94.2957229 C50.7987347,92.5113374 51.280889,90.3261567 50.8418323,88.1436538 C50.7942455,87.9115676 50.7080503,87.6973342 50.6416081,87.4732817 C50.8535048,86.9037781 50.9980612,86.3476638 50.9980612,85.7995835 L50.9980612,85.1113586 C50.9980612,81.6871948 50.2339768,78.2353591 48.727357,74.8486863 C43.8923458,63.9852676 43.9085075,55.0579834 48.7785353,44.0347825 C50.2510363,40.6998826 50.998959,37.2882156 50.998959,33.8926162 L50.998959,31.1995239 C50.998959,29.6204453 50.2770744,28.14402 48.8548539,26.7925644 C50.2043473,24.6805801 50.998959,22.1829758 50.998959,19.4997024 C50.998959,11.9747544 44.8377992,5.84946436 37.2687849,5.84946436 L31.3841679,5.84946436 L31.3841679,0 L19.6158321,0 L19.6158321,5.85035694 L13.7312151,5.85035694 C6.16220085,5.85035694 0.00193889371,11.9747544 0.00193889371,19.5005952 C0.00193889371,22.1838684 0.795652974,24.6796875 2.14514612,26.793457 C0.723823656,28.1422349 0.00193889371,29.6204453 0.00193889371,31.2004165 L0.00193889371,33.881012 C0.00193889371,37.2837524 0.753453192,40.7043457 2.23313715,44.0463867 C7.09598198,55.0329895 7.10136907,63.9602737 2.26276668,74.8620757 C0.762431742,78.2398223 0.00193889371,81.6854097 0.00193889371,85.097969 L0.00193889371,85.8004761 C0.00193889371,86.3458787 0.146495454,86.9037781 0.358391942,87.4714966 C0.291949708,87.6937637 0.205754526,87.9079971 0.158167661,88.1400833 C-0.280888989,90.3243713 0.201265252,92.5104446 1.51574177,94.2948303 C2.0670319,95.0455398 2.0670319,96.0533296 1.51574177,96.8040391 C0.278481883,98.4830933 -0.190204532,100.520989 0.119559345,102.580307 C0.0549129584,102.865059 0.00193889371,103.166771 0.00193889371,103.514008 L0.00193889371,117 L50.9980612,117 L50.9980612,103.514008 C50.9980612,103.169449 50.9432912,102.865059 50.8786448,102.580307 C51.1911026,100.522774 50.7224162,98.4848784 49.4842582,96.8058242 L49.4842582,96.8058242 Z M4.52449239,103.443489 C4.297332,103.081078 4.12673749,102.67939 4.0288701,102.24646 L3.99295544,102.088463 C3.81248434,101.02533 4.04862305,99.97023 4.68161908,99.1088333 C5.05064203,98.6071702 5.32538929,98.0635527 5.52112407,97.5002976 L11.7702747,97.5002976 C12.8548974,97.5002976 13.7321132,96.628189 13.7321132,95.5498809 C13.7321132,94.4715728 12.8548974,93.6003569 11.7702747,93.6003569 L5.51932845,93.6003569 C5.32538929,93.036209 5.04884642,92.4925918 4.67982324,91.9918213 C4.02258498,91.1000747 3.78285457,90.0021287 4.0028318,88.9006118 C4.04413377,88.6979829 4.10698454,88.5033875 4.18330313,88.31147 L4.23448146,88.192749 C4.24076659,88.1793594 4.25064318,88.1659697 4.25603026,88.1516875 C4.37185498,87.8883591 4.53436875,87.6607361 4.69957618,87.4340059 C5.30922758,86.6502686 6.23133651,86.0807647 7.28273821,85.8817063 C7.36175046,85.870102 7.4362732,85.854927 7.51618349,85.8468933 C7.71281631,85.8236846 7.90675547,85.7995835 8.10697952,85.7995835 L42.8939183,85.7995835 C43.0941426,85.7995835 43.2880817,85.8236846 43.4829187,85.8486787 C43.5610331,85.8567124 43.6373517,85.8718872 43.716364,85.8834915 C44.7677657,86.08255 45.6898746,86.6520537 46.3013216,87.4375762 C46.4638354,87.6625215 46.6245536,87.8865737 46.7385827,88.1454392 C46.7466634,88.1650772 46.7583356,88.1811448 46.7682122,88.2007827 L46.8157991,88.3096848 C46.8921177,88.5007095 46.956764,88.6970901 46.9962704,88.9023972 C47.2162476,90.0021287 46.9765172,91.1000747 46.319279,91.9909287 C45.9502558,92.4925918 45.6755087,93.036209 45.4797737,93.5994644 L27.4622871,93.5994644 C26.3776644,93.5994644 25.5004489,94.4715728 25.5004489,95.5498809 C25.5004489,96.628189 26.3776644,97.4994048 27.4622871,97.4994048 L45.4815696,97.4994048 C45.6755087,98.0635527 45.9529494,98.6071702 46.3210748,99.1088333 C46.956764,99.97023 47.1920052,101.027115 47.0097382,102.08757 L46.9747216,102.243782 C46.876854,102.674927 46.7053614,103.076614 46.4782013,103.439026 C45.7365637,104.554825 44.3798874,105.299287 42.8966119,105.299287 L8.10428586,105.299287 C6.62101067,105.300178 5.26433437,104.554825 4.52449239,103.443489 L4.52449239,103.443489 Z M23.5386107,3.89994043 L27.4613893,3.89994043 L27.4613893,5.85035694 L23.5386107,5.85035694 L23.5386107,3.89994043 Z M13.7312151,9.7502976 L37.2687849,9.7502976 C42.6766347,9.7502976 47.0761805,14.1233369 47.0761805,19.4997024 C47.0761805,22.0383682 46.0696722,24.3360215 44.4633889,26.0730972 C44.3062622,26.2426987 44.1518294,26.4105149 43.9848261,26.568512 C43.6696749,26.8648682 43.3356686,27.1380156 42.9828071,27.3915254 C42.8140082,27.5120315 42.6407201,27.6280747 42.4647382,27.7369766 C42.0723704,27.9824524 41.6683306,28.20829 41.242742,28.3975295 C41.1017768,28.4600144 40.9545267,28.5126802 40.8099703,28.5689163 C40.3251224,28.7563706 39.8286023,28.9224014 39.3105334,29.0330886 C39.2360104,29.0491562 39.1578959,29.0571899 39.0815773,29.0705796 C38.4952704,29.1776963 37.8910063,29.25 37.2687849,29.25 L13.7321132,29.25 C13.1107893,29.25 12.5065253,29.1776963 11.9184227,29.0661162 C11.8412063,29.0527268 11.7648877,29.0446929 11.6885688,29.0295181 C11.1704999,28.9206162 10.6748776,28.7545852 10.1900297,28.5653457 C10.0445755,28.5091094 9.89732539,28.458229 9.75636018,28.393959 C9.33077159,28.2047195 8.92673179,27.9788818 8.53436396,27.7325134 C8.36017798,27.6218262 8.18599177,27.5084609 8.01719287,27.3879546 C7.66612702,27.1344453 7.33032508,26.8612976 7.01427608,26.5649414 C6.84817084,26.4087295 6.69104414,26.2391282 6.5357133,26.0695266 C4.93122585,24.3360215 3.92561526,22.0383682 3.92561526,19.4997024 C3.92471759,14.1242295 8.32426332,9.7502976 13.7312151,9.7502976 Z M5.85064112,76.4357986 C11.1875595,64.4181977 11.1794787,54.5786362 5.82101159,42.4744492 C4.56130486,39.6296082 3.92471759,36.7401353 3.92471759,33.881012 L3.92471759,31.2004165 C3.92471759,30.7808762 4.19946461,30.2818909 4.70765715,29.7605896 C5.31730832,30.2908174 5.97454681,30.7674866 6.67039316,31.1843491 C6.69014634,31.1959534 6.70720586,31.2084502 6.7269588,31.2173767 C7.04749708,31.4066162 7.37432048,31.5824661 7.71012265,31.7458191 C7.76130098,31.7717056 7.81427516,31.7949143 7.86455569,31.8208008 C8.17252395,31.9671936 8.4867771,32.1010894 8.80821318,32.2260591 C8.89620421,32.2590867 8.98688867,32.2903291 9.0748797,32.3233567 C9.36758405,32.428688 9.66118645,32.527771 9.96107397,32.6143569 C10.0966516,32.6527405 10.2340254,32.6839829 10.3713989,32.7196885 C10.6344737,32.7857437 10.8948551,32.8517991 11.1642148,32.9026794 C11.3734179,32.9437407 11.58711,32.9687349 11.8017001,32.9999771 C12.0091073,33.0294341 12.2129229,33.0660325 12.4230237,33.0856704 C12.8548974,33.1267319 13.2921585,33.1499404 13.7312151,33.1499404 L37.2687849,33.1499404 C37.7078415,33.1499404 38.1451026,33.1267319 38.5787721,33.0838853 C38.7879749,33.0642471 38.9926885,33.0276489 39.2000957,32.9981919 C39.4119922,32.9669495 39.6265824,32.941063 39.8357852,32.9008941 C40.1042471,32.8500137 40.3673221,32.7839585 40.630397,32.7170105 C40.7677705,32.6821975 40.9051442,32.6509551 41.0407219,32.6116792 C41.3406094,32.5259858 41.6351096,32.4269028 41.9269162,32.3215713 C42.014907,32.2903291 42.1055916,32.2590867 42.1935824,32.2242737 C42.5150188,32.1010894 42.8274763,31.9645156 43.1372402,31.8181228 C43.1884185,31.7931289 43.2404949,31.7699204 43.2916732,31.7440337 C43.6274754,31.5797881 43.9542985,31.404831 44.274837,31.2155913 C44.2918963,31.2039871 44.3116495,31.194168 44.3296068,31.1825637 C45.027249,30.7630234 45.6844873,30.2899246 46.2950365,29.7588042 C46.8005354,30.2818909 47.0752826,30.7808762 47.0752826,31.1995239 L47.0752826,33.8926162 C47.0752826,36.7437058 46.4395929,39.6296082 45.1843757,42.4673081 C39.8223171,54.6080933 39.8088491,64.4449768 45.1412781,76.4259795 C46.0930166,78.5674209 46.6972807,80.7276077 46.9459899,82.8752976 C45.808393,82.2486648 44.5082823,81.9005356 43.1525038,81.9005356 L7.84749617,81.9005356 C6.4917179,81.9005356 5.19160724,82.2486648 4.0513167,82.8770828 C4.29912785,80.7320708 4.90159631,78.5754546 5.85064112,76.4357986 Z M47.0761805,113.10006 L3.92471759,113.10006 L3.92471759,108.1352 C5.09194401,108.813606 6.43694787,109.200119 7.84749617,109.200119 L43.1525038,109.200119 C44.5630521,109.200119 45.908954,108.813606 47.0761805,108.1352 L47.0761805,113.10006 Z" id="Shape"></path>
                </g>
            </g>
        </g>
    </g>
</svg>